PathFileType	4	(X/Y/Z)	c:/Users/goper/Files/vsCode/490R/osim_files/C11/C11_Static01.trc
DataRate	CameraRate	NumFrames	NumMarkers	Units                	OrigDataRate	OrigDataStartFrame	OrigNumFrames
120.00	120.00	7	36	mm	120.0	545	1089
                Frame#	Time	LPSI			LASI			LTH1			LTH2			LTH3			LTH4			LLFE			LMFE			LSH1			LSH2			LSH3			LSH4			LLMA			LMMA			LCAL			LMTP			LTOE			LMTP			RPSI			RASI			RTH1			RTH2			RTH3			RTH4			RLFE			RMFE			RSH1			RSH2			RSH3			RSH4			RLMA			RMMA			RCAL			RMTP			RTOE			RMTP		
		X1	Y1	Z1	X2	Y2	Z2	X3	Y3	Z3	X4	Y4	Z4	X5	Y5	Z5	X6	Y6	Z6	X7	Y7	Z7	X8	Y8	Z8	X9	Y9	Z9	X10	Y10	Z10	X11	Y11	Z11	X12	Y12	Z12	X13	Y13	Z13	X14	Y14	Z14	X15	Y15	Z15	X16	Y16	Z16	X17	Y17	Z17	X18	Y18	Z18	X19	Y19	Z19	X20	Y20	Z20	X21	Y21	Z21	X22	Y22	Z22	X23	Y23	Z23	X24	Y24	Z24	X25	Y25	Z25	X26	Y26	Z26	X27	Y27	Z27	X28	Y28	Z28	X29	Y29	Z29	X30	Y30	Z30	X31	Y31	Z31	X32	Y32	Z32	X33	Y33	Z33	X34	Y34	Z34	X35	Y35	Z35	X36	Y36	Z36

545	4.53333	-373.68259	1017.59271	478.35025	-199.23703	1008.54578	402.68512	-319.06329	644.74182	312.72418	-315.75394	597.24518	310.08124	-258.29980	643.80060	308.56555	-264.23904	597.24609	309.82199	-315.25653	516.31781	304.80197	-295.48953	501.54813	413.66623	-375.34106	414.29614	290.77332	-375.93018	369.60583	286.60434	-314.23599	409.96710	279.15936	-323.13522	365.74191	276.70099	-352.94489	96.99033	311.28177	-315.08893	110.23828	402.65634	-405.15338	58.82319	370.24786	-244.03481	40.22065	268.39703	-165.74774	57.50148	330.10577	-201.95433	45.48748	379.62396	-365.96762	1030.91333	562.16772	-199.07112	1001.30597	632.91315	-298.81659	632.26355	706.87054	-294.28754	588.35248	706.61938	-236.73926	630.70569	698.14185	-242.36151	588.09479	700.66772	-276.23041	520.33356	699.67450	-302.86484	488.10651	590.44360	-346.13681	414.81528	728.08820	-341.42276	368.95029	730.86517	-284.54532	412.75122	722.45618	-288.57791	365.90619	728.01257	-326.72418	98.45770	711.72601	-298.60022	105.32860	617.60010	-387.57352	58.77094	664.50922	-171.38608	48.81928	643.17944	-168.15587	61.59943	692.66333	-209.22812	38.83417	753.82202
546	4.54167	-373.72314	1017.61243	478.37460	-199.25414	1008.54260	402.67740	-319.04526	644.73987	312.73206	-315.75159	597.24609	310.07318	-258.32214	643.80908	308.57153	-264.26990	597.23822	309.81665	-315.24213	516.31055	304.79617	-295.54266	501.53439	413.64459	-375.32690	414.31268	290.76489	-375.95184	369.59454	286.59525	-314.25299	409.94296	279.21027	-323.13333	365.75424	276.69809	-352.89459	96.99034	311.26105	-315.07919	110.24079	402.67731	-405.14035	58.82768	370.24020	-243.92210	40.33882	268.30005	-165.74361	57.48122	330.10873	-201.96518	45.45517	379.61032	-365.94659	1030.90698	562.19458	-199.03809	1001.32050	632.93494	-298.75623	632.28278	706.88770	-294.23315	588.36621	706.62018	-236.71721	630.70203	698.13629	-242.33372	588.06958	700.66577	-276.20471	520.31250	699.68872	-302.83231	488.11420	590.45471	-346.09909	414.80368	728.09857	-341.42261	368.97406	730.86975	-284.52094	412.75388	722.45917	-288.55344	365.88309	728.00830	-326.70615	98.48312	711.74402	-298.58917	105.32882	617.58722	-387.48483	58.71299	664.48163	-171.38306	48.79423	643.18335	-168.14749	61.58235	692.64496	-209.23837	38.82364	753.81720
547	4.55000	-373.71262	1017.63678	478.38217	-199.25108	1008.56934	402.66266	-319.06204	644.72247	312.74426	-315.75397	597.25049	310.07883	-258.32336	643.83289	308.57553	-264.29468	597.26056	309.81161	-315.23297	516.32794	304.80679	-295.48163	501.63205	413.64609	-375.33606	414.31900	290.77679	-375.96042	369.60373	286.59055	-314.24985	409.97543	279.19455	-323.13339	365.78888	276.69858	-352.90427	96.99638	311.26260	-315.05490	110.31180	402.63419	-405.19125	58.85997	370.19516	-244.00018	40.25033	268.38095	-165.72635	57.53151	330.05249	-201.95151	45.53538	379.57205	-365.96317	1030.95984	562.16809	-199.18629	1001.42603	632.78223	-298.75934	632.36023	706.86432	-294.23987	588.43671	706.59253	-236.65671	630.77747	698.10895	-242.28824	588.15039	700.63885	-276.21677	520.40698	699.64447	-302.82294	488.11685	590.46649	-346.08914	414.85934	728.07306	-341.40161	369.03458	730.85406	-284.46375	412.82053	722.44250	-288.50403	365.95880	727.98334	-326.80090	98.58094	711.68121	-298.57928	105.35076	617.58081	-387.53891	58.78077	664.40527	-171.39261	48.85938	643.14337	-168.11737	61.65507	692.60754	-209.23787	38.84911	753.80322
548	4.55833	-373.72333	1017.63922	478.38202	-199.24895	1008.58575	402.68167	-319.06064	644.71924	312.75555	-315.77228	597.24469	310.10718	-258.35217	643.82153	308.58536	-264.29361	597.25720	309.82547	-315.25235	516.32520	304.83264	-295.48795	501.65289	413.69089	-375.31494	414.32541	290.75949	-375.97711	369.62662	286.59622	-314.26819	409.98184	279.17191	-323.14316	365.77740	276.71024	-352.88333	96.98981	311.26221	-315.00131	110.33998	402.60907	-405.18680	58.87924	370.16663	-243.99910	40.22367	268.37677	-165.70087	57.59179	330.00507	-201.91937	45.58244	379.54733	-365.98666	1031.00879	562.14282	-199.08943	1001.47528	632.77368	-298.73322	632.38794	706.83978	-294.18921	588.46472	706.57178	-236.53653	630.83679	698.08258	-242.18863	588.20105	700.61145	-276.14706	520.45392	699.61218	-302.79477	488.11090	590.49097	-346.06610	414.87885	728.05328	-341.38028	369.03436	730.82776	-284.33145	412.89554	722.41461	-288.46298	365.99356	727.97980	-326.80228	98.61140	711.60870	-298.55731	105.35539	617.57599	-387.54904	58.83867	664.33801	-171.34770	48.91031	643.09802	-168.05440	61.73035	692.55933	-209.19844	38.87161	753.78131
549	4.56667	-373.75101	1017.62781	478.41724	-199.27319	1008.57904	402.69717	-319.07315	644.72632	312.77344	-315.80795	597.23651	310.12927	-258.38791	643.79327	308.59705	-264.30365	597.24823	309.84299	-315.26910	516.32642	304.84808	-295.56448	501.57886	413.67111	-375.36749	414.33496	290.80997	-375.95920	369.61346	286.61087	-314.30417	409.94980	279.24466	-323.15430	365.74887	276.73721	-352.86432	96.98955	311.26175	-314.99536	110.32220	402.61118	-405.16760	58.85075	370.17740	-243.87036	40.40698	268.24509	-165.68285	57.57458	330.02310	-201.89594	45.59829	379.53943	-365.30298	1030.67151	562.21655	-199.04588	1001.48633	632.77374	-298.69055	632.37280	706.86658	-294.15491	588.46307	706.59015	-236.52087	630.82623	698.07666	-242.17528	588.18909	700.61737	-276.12460	520.46210	699.63495	-302.78745	488.09894	590.50140	-346.04742	414.87845	728.06512	-341.37991	369.01450	730.82538	-284.28082	412.88364	722.43579	-288.41211	365.97882	727.97241	-326.78214	98.57520	711.61700	-298.55042	105.33861	617.59100	-387.54999	58.85680	664.35468	-171.32819	48.92297	643.09515	-168.05301	61.73302	692.56494	-209.21104	38.86195	753.77765
550	4.57500	-373.74844	1017.59583	478.45990	-199.29219	1008.61462	402.68750	-319.11102	644.71545	312.78052	-315.83368	597.23291	310.14438	-258.42453	643.79144	308.61084	-264.33447	597.25830	309.85104	-315.32285	516.31207	304.87259	-295.55457	501.59326	413.67975	-375.35880	414.31064	290.81210	-375.98367	369.59393	286.63574	-314.32413	409.96240	279.21375	-323.19556	365.74197	276.74142	-352.89359	96.96872	311.26828	-315.05069	110.27557	402.62201	-405.10233	58.79162	370.18860	-243.91151	40.37799	268.25378	-165.72794	57.54536	330.05661	-201.93439	45.55563	379.57056	-365.96820	1030.94702	562.22937	-199.11076	1001.46301	632.78613	-298.72699	632.33386	706.89594	-294.20224	588.42987	706.61530	-236.59200	630.77881	698.09998	-242.20866	588.16730	700.62970	-276.16135	520.43250	699.66254	-302.82626	488.08936	590.50952	-346.05292	414.84979	728.09711	-341.41116	368.95401	730.85522	-284.34607	412.82541	722.45618	-288.48154	365.95602	727.99506	-326.76355	98.50646	711.65857	-298.56070	105.32911	617.59076	-387.57788	58.82804	664.41681	-171.36603	48.88552	643.11798	-168.12100	61.66693	692.61560	-209.25438	38.83245	753.80396
551	4.58333	-373.76480	1017.56726	478.49258	-199.33081	1008.64587	402.66684	-319.16190	644.72009	312.77029	-315.88901	597.23230	310.13428	-258.45117	643.80579	308.60809	-264.36465	597.26636	309.83545	-315.37085	516.31445	304.87802	-295.56546	501.58047	413.69003	-375.39090	414.28983	290.81494	-376.02762	369.55978	286.66104	-314.34943	409.99197	279.20660	-323.24023	365.73715	276.74310	-352.95779	96.97442	311.27246	-315.09555	110.24139	402.64999	-405.06265	58.75676	370.22821	-243.93239	40.35863	268.26587	-165.73560	57.51632	330.06955	-201.95392	45.51916	379.58951	-365.92807	1030.87817	562.27966	-199.12457	1001.46246	632.79761	-298.74545	632.31036	706.90302	-294.17761	588.40656	706.64258	-236.58620	630.77380	698.10248	-242.22760	588.15002	700.65527	-276.13971	520.37830	699.70337	-302.87042	488.08780	590.52185	-346.03500	414.82318	728.13806	-341.37393	368.90942	730.87714	-284.33774	412.82443	722.49005	-288.47766	365.90979	728.01843	-326.79135	98.45259	711.66492	-298.61053	105.34797	617.57404	-387.52814	58.75541	664.47144	-171.37250	48.87779	643.12939	-168.15552	61.63319	692.63593	-209.28130	38.81932	753.80908
